HIERARCHY
ROOT Hips
{
  OFFSET 3.13124 94.3669 -3.18751
  CHANNELS  6 Xposition Yposition Zposition Zrotation Xrotation Yrotation
  JOINT LeftUpLeg
  {
    OFFSET 8.64259 1.95398 -2.38835
    CHANNELS 3 Zrotation Xrotation Yrotation
    JOINT LeftLeg
    {
      OFFSET 43.7702 0 0
      CHANNELS 3 Zrotation Xrotation Yrotation
      JOINT LeftFoot
      {
        OFFSET 40.6238 0 0
        CHANNELS 3 Zrotation Xrotation Yrotation
        JOINT LeftToeBase
        {
          OFFSET 12.7242 0 0
          CHANNELS 3 Zrotation Xrotation Yrotation
          End Site
          {
            OFFSET 0 0 0
          }
        }
      }
    }
  }
  JOINT RightUpLeg
  {
    OFFSET -8.2249 1.95398 -2.59336
    CHANNELS 3 Zrotation Xrotation Yrotation
    JOINT RightLeg
    {
      OFFSET 43.5653 0 0
      CHANNELS 3 Zrotation Xrotation Yrotation
      JOINT RightFoot
      {
        OFFSET 40.6238 0 0
        CHANNELS 3 Zrotation Xrotation Yrotation
        JOINT RightToeBase
        {
          OFFSET 12.7242 0 0
          CHANNELS 3 Zrotation Xrotation Yrotation
          End Site
          {
            OFFSET 0 0 0
          }
        }
      }
    }
  }
  JOINT Spine
  {
    OFFSET 0.165834 0.87714 6.61349
    CHANNELS 3 Zrotation Xrotation Yrotation
    JOINT Spine1
    {
      OFFSET 7.38962 1.71661e-005 0
      CHANNELS 3 Zrotation Xrotation Yrotation
      JOINT Spine2
      {
        OFFSET 11.9445 1.14441e-005 0
        CHANNELS 3 Zrotation Xrotation Yrotation
        JOINT Spine3
        {
          OFFSET 14.7254 4.19617e-005 0
          CHANNELS 3 Zrotation Xrotation Yrotation
          JOINT Spine4
          {
            OFFSET 10.9679 0 0
            CHANNELS 3 Zrotation Xrotation Yrotation
            JOINT RightShoulder
            {
              OFFSET 2.46616 -1.6653 3.69651
              CHANNELS 3 Zrotation Xrotation Yrotation
              JOINT RightArm
              {
                OFFSET 13.0012 0 0
                CHANNELS 3 Zrotation Xrotation Yrotation
                JOINT RightForeArm
                {
                  OFFSET 28.7848 1.52588e-005 0
                  CHANNELS 3 Zrotation Xrotation Yrotation
                  JOINT RightHand
                  {
                    OFFSET 26.5688 1.52588e-005 0
                    CHANNELS 3 Zrotation Xrotation Yrotation
                    End Site
                    {
                      OFFSET 0 0 0
                    }
                  }
                }
              }
            }
            JOINT LeftShoulder
            {
              OFFSET 2.38034 -1.29275 -3.75231
              CHANNELS 3 Zrotation Xrotation Yrotation
              JOINT LeftArm
              {
                OFFSET 16.3182 6.10352e-005 0
                CHANNELS 3 Zrotation Xrotation Yrotation
                JOINT LeftForeArm
                {
                  OFFSET 27.0901 0 0
                  CHANNELS 3 Zrotation Xrotation Yrotation
                  JOINT LeftHand
                  {
                    OFFSET 24.5451 1.52588e-005 0
                    CHANNELS 3 Zrotation Xrotation Yrotation
                    End Site
                    {
                      OFFSET 0 0 0
                    }
                  }
                }
              }
            }
            JOINT Neck
            {
              OFFSET 5.0226 -0.0266342 0
              CHANNELS 3 Zrotation Xrotation Yrotation
              JOINT Head
              {
                OFFSET 6.69363 2.86102e-005 0
                CHANNELS 3 Zrotation Xrotation Yrotation
                End Site
                {
                  OFFSET 0 0 0
                }
              }
            }
          }
        }
      }
    }
  }
}
MOTION
Frames:	9
Frame Time:	0.0333333
-1.19314 98.4485 -10.3587 92.3747 -89.9882 92.4871 -171.65 2.81538 89.9897 -9.55463 7.9614 3.17253 63.7279 0.572119 0.265598 28.7808 5.1905e-006 4.31485e-006 -179.297 2.02755 91.5455 -7.84149 0.905393 0.0451245 62.8623 -1.11238 -0.558425 28.7808 1.31024e-005 2.74892e-005 0.00906717 6.34177 -90.1135 14.1935 5.79505e-005 -4.89231e-005 2.52254 5.6408e-005 -5.76212e-005 -20.0126 6.71941e-005 -2.96432e-005 3.18628e-005 6.85231e-005 -3.20777e-005 100.907 -18.8854 -85.2566 1.90375 42.5841 -29.9492 -3.66939 0.285194 -2.95779 -5.37983 -0.320005 -0.0162415 -79.3121 -21.8422 93.6075 9.01734 -43.7494 -22.7203 4.69018 45.7846 -0.575315 -1.65003 -0.0851322 -3.39698 1.75919 -0.00733573 0.00392416 -7.41771 -0.00312503 -0.0024735 
-1.20257 98.4162 -10.3543 92.2729 -89.8498 92.4451 -171.672 2.67871 90.0291 -9.27506 8.11585 3.2006 63.8427 0.940197 0.484868 28.7808 5.1905e-006 4.31485e-006 -179.264 1.65475 91.6166 -7.11072 1.07012 0.0543073 62.5594 -1.12055 -0.552983 28.7808 1.31024e-005 2.74892e-005 0.013906 6.34013 -90.1836 14.1928 -0.00117639 0.00108573 2.52184 -0.00112566 0.00113022 -20.0133 -0.00145276 0.000675443 -0.000673348 -0.00144812 0.000677909 100.912 -18.7898 -85.1295 2.04534 42.5205 -29.9926 -3.68176 0.285203 -2.92521 -5.37983 -0.320005 -0.0162415 -79.4109 -21.8514 93.472 8.97267 -43.7005 -22.7018 4.68531 45.7876 -0.583333 -1.72915 -0.0851356 -3.35812 1.85274 -0.115113 0.0587988 -7.52806 -0.0518902 -0.0379325 
-1.20927 98.4202 -10.3456 88.1563 -89.6715 88.2724 -171.738 2.73658 89.9585 -9.34451 8.23829 3.26592 63.8025 0.891912 0.456575 28.7808 5.1905e-006 4.31485e-006 -179.261 1.19093 91.5525 -6.1651 1.19943 0.0620837 62.258 -0.994025 -0.474192 28.7808 1.31024e-005 2.74892e-005 -0.00320342 6.34039 -90.1747 14.1762 -0.0301387 0.027704 2.50529 -0.0288802 0.0289869 -20.0299 -0.0370725 0.0173672 -0.0172265 -0.037071 0.0173541 100.948 -18.894 -85.1582 2.05385 42.5258 -30.0177 -3.68565 0.285209 -2.90126 -5.37983 -0.320005 -0.0162415 -79.3728 -21.8097 93.4668 9.01159 -43.5026 -22.6322 4.59493 46.1334 -0.596449 -1.79785 -0.085123 -3.4998 2.00613 -0.086596 0.0018215 -7.63998 -0.0800602 -0.0146382 
-1.21918 98.4258 -10.3603 88.0509 -89.6829 88.2476 -171.691 2.75968 90.0337 -9.36172 8.25812 3.26734 63.8549 0.929431 0.479756 28.7808 5.1905e-006 4.31485e-006 -179.219 1.28175 91.6568 -6.32667 1.26903 0.0659012 62.2249 -1.09069 -0.529928 28.7808 1.31024e-005 2.74892e-005 0.0160697 6.3398 -90.195 14.1939 0.00083225 -0.000764244 2.52298 0.000808232 -0.000809966 -20.0122 0.00102702 -0.000475875 0.000477951 0.00102785 -0.000481166 100.922 -18.8045 -85.1269 2.10843 42.46 -29.9555 -3.66243 0.285212 -2.88793 -5.37983 -0.320005 -0.0162415 -79.5421 -21.918 93.1529 9.06635 -43.4402 -22.5047 4.46433 45.8004 -0.557989 -1.6656 -0.0851377 -3.33438 1.75575 -0.194151 0.0520593 -7.45431 -0.105811 -0.0321781 
-1.21674 98.392 -10.3714 73.9547 -89.6794 74.0897 -171.756 2.88828 89.9553 -9.46989 8.13219 3.2501 63.9251 0.937746 0.484333 28.7808 5.1905e-006 4.31485e-006 -179.299 2.15135 91.5853 -7.929 1.21297 0.0679101 62.9664 -1.09595 -0.545274 28.7808 1.31024e-005 2.74892e-005 0.0144108 6.34031 -90.1767 14.1934 5.23987e-008 3.55836e-007 2.52251 6.03538e-006 -2.44594e-006 -20.0126 -6.80864e-006 -7.83469e-007 -2.08031e-008 5.05233e-010 5.19343e-011 100.932 -18.7563 -85.2781 2.10118 42.425 -29.8718 -3.64049 0.285211 -2.891 -5.37983 -0.320005 -0.0162415 -79.4903 -21.9147 93.1267 8.89482 -43.3299 -22.5514 4.42941 45.8268 -0.513585 -1.78727 -0.0851308 -3.41292 1.82383 -0.158334 0.0979211 -7.49408 -0.111606 0.00421348 
-1.2468 98.432 -10.3492 93.3953 -89.7119 93.5133 -171.678 2.94386 89.984 -9.79592 8.05753 3.25433 63.7815 0.421083 0.180489 28.7808 5.1905e-006 4.31485e-006 -179.245 1.69273 91.5901 -7.24132 1.25705 0.0693503 62.7145 -1.04021 -0.513946 28.7808 1.31024e-005 2.74892e-005 0.00910347 6.34153 -90.1148 14.1934 5.02934e-006 6.05529e-006 2.52251 5.56349e-006 -4.58901e-006 -20.0126 -3.73067e-006 3.54669e-006 -7.75638e-007 1.88375e-008 1.93636e-009 100.789 -18.7523 -85.3077 2.31245 42.3502 -30.0244 -3.65073 0.285217 -2.8667 -5.37983 -0.320005 -0.0162415 -79.6581 -21.8486 93.0535 8.80252 -43.2494 -22.5345 4.37975 45.9979 -0.462204 -1.75518 -0.0851293 -3.43002 1.70618 -0.104947 0.11203 -7.52355 -0.0952956 -0.0274247 
-1.24412 98.4089 -10.3596 73.7892 -89.7507 73.95 -171.703 2.91953 90.0052 -9.58604 8.16011 3.27161 63.8997 0.808674 0.40836 28.7808 5.1905e-006 4.31485e-006 -179.207 1.18909 91.6181 -6.02093 1.29857 0.0702227 62.3262 -0.811899 -0.371089 28.7808 1.31024e-005 2.74892e-005 0.0127661 6.34024 -90.1578 14.1934 2.9289e-005 -2.03439e-005 2.52246 2.29238e-005 -3.69177e-005 -20.0127 2.90042e-005 -1.53116e-005 -5.66257e-005 2.86931e-005 -2.24441e-005 100.856 -18.8159 -85.5192 2.27854 42.3211 -29.9435 -3.62454 0.28522 -2.85745 -5.37983 -0.320005 -0.0162415 -79.5221 -21.8082 93.0055 8.65335 -43.2 -22.5634 4.34477 46.0779 -0.399018 -1.75168 -0.0851319 -3.37228 1.64987 -0.10228 0.0257483 -7.42185 -0.0667922 0.0671937 
-1.25933 98.4211 -10.3483 69.4373 -89.756 69.5465 -171.709 3.03629 89.9671 -9.78826 8.00508 3.25212 63.8186 0.535848 0.2469 28.7808 5.1905e-006 4.31485e-006 -179.264 2.05568 91.588 -7.75411 1.16559 0.070526 62.9012 -1.13768 -0.57329 28.7808 1.31024e-005 2.74892e-005 0.00900019 6.33972 -90.114 14.1945 -0.000389662 0.000593773 2.52356 -0.000372757 0.000607029 -20.0116 -0.000556226 0.000447085 0.0010552 -0.000556822 0.000445072 100.863 -18.7307 -85.5313 2.39557 42.1943 -29.9611 -3.56695 0.285224 -2.84116 -5.37983 -0.320005 -0.0162415 -79.5599 -21.7808 92.9042 8.67422 -43.1054 -22.4715 4.28974 45.9927 -0.420558 -1.77276 -0.085055 -3.32624 1.71983 -0.112329 0.0957264 -7.50029 -0.0986605 -0.0211253 
-1.27221 98.4079 -10.3413 63.7892 -89.7003 63.9636 -171.708 2.92486 90.026 -9.48629 8.1738 3.26778 63.9147 0.829096 0.422302 28.7808 5.1905e-006 4.31485e-006 -179.227 1.65872 91.6528 -6.8614 1.25051 0.070274 62.5354 -0.998037 -0.481451 28.7808 1.31024e-005 2.74892e-005 0.0066136 6.32408 -90.1707 14.2258 -0.0118939 0.017128 2.55489 -0.0111294 0.017627 -19.9803 -0.0164913 0.0127682 0.0323792 -0.0164945 0.012755 100.788 -18.9111 -85.5907 2.33986 42.2136 -29.9572 -3.55526 0.28523 -2.81384 -5.37983 -0.320005 -0.0162415 -79.6389 -21.6075 92.8242 8.58627 -43.036 -22.455 4.23637 45.9729 -0.379152 -1.74502 -0.0845992 -3.30908 1.58152 -0.136142 -0.169793 -7.43771 -0.11091 0.196046 
